<mxfile host="app.diagrams.net" modified="2023-07-31T07:28:26.852Z" agent="Mozilla/5.0 (Windows NT 10.0; Win64; x64) AppleWebKit/537.36 (KHTML, like Gecko) Chrome/115.0.0.0 Safari/537.36" etag="5_tz6pISD6JoBXI_DY_K" version="21.6.6" type="google" pages="3">
  <diagram name="Admin" id="ah9emz2-x41kmLOVZMYZ">
    <mxGraphModel grid="1" page="1" gridSize="10" guides="1" tooltips="1" connect="1" arrows="1" fold="1" pageScale="1" pageWidth="850" pageHeight="1100" math="0" shadow="0">
      <root>
        <mxCell id="0" />
        <mxCell id="1" parent="0" />
        <mxCell id="nnhNoNJ5YSR0U6Bdxa66-1" value="Start" style="strokeWidth=2;html=1;shape=mxgraph.flowchart.start_1;whiteSpace=wrap;" vertex="1" parent="1">
          <mxGeometry x="351" y="10" width="100" height="40" as="geometry" />
        </mxCell>
        <mxCell id="nnhNoNJ5YSR0U6Bdxa66-2" value="" style="endArrow=classic;html=1;rounded=0;exitX=0.42;exitY=1.04;exitDx=0;exitDy=0;exitPerimeter=0;" edge="1" parent="1">
          <mxGeometry width="50" height="50" relative="1" as="geometry">
            <mxPoint x="401" y="50.60000000000002" as="sourcePoint" />
            <mxPoint x="401" y="79" as="targetPoint" />
          </mxGeometry>
        </mxCell>
        <mxCell id="nnhNoNJ5YSR0U6Bdxa66-3" value="Open the website" style="rounded=0;whiteSpace=wrap;html=1;" vertex="1" parent="1">
          <mxGeometry x="346" y="78" width="120" height="32" as="geometry" />
        </mxCell>
        <mxCell id="nnhNoNJ5YSR0U6Bdxa66-4" value="" style="endArrow=classic;html=1;rounded=0;exitX=0.42;exitY=1.04;exitDx=0;exitDy=0;exitPerimeter=0;" edge="1" parent="1">
          <mxGeometry width="50" height="50" relative="1" as="geometry">
            <mxPoint x="401" y="110.60000000000002" as="sourcePoint" />
            <mxPoint x="401" y="139" as="targetPoint" />
          </mxGeometry>
        </mxCell>
        <mxCell id="nnhNoNJ5YSR0U6Bdxa66-5" value="Enter admin login credentials" style="rounded=0;whiteSpace=wrap;html=1;" vertex="1" parent="1">
          <mxGeometry x="346" y="138" width="120" height="32" as="geometry" />
        </mxCell>
        <mxCell id="nnhNoNJ5YSR0U6Bdxa66-6" value="" style="endArrow=classic;html=1;rounded=0;exitX=0.42;exitY=1.04;exitDx=0;exitDy=0;exitPerimeter=0;" edge="1" parent="1">
          <mxGeometry width="50" height="50" relative="1" as="geometry">
            <mxPoint x="401" y="170.60000000000002" as="sourcePoint" />
            <mxPoint x="401" y="199" as="targetPoint" />
          </mxGeometry>
        </mxCell>
        <mxCell id="nnhNoNJ5YSR0U6Bdxa66-7" value="Is valid ?&amp;nbsp;" style="rhombus;whiteSpace=wrap;html=1;" vertex="1" parent="1">
          <mxGeometry x="366" y="198" width="69" height="70" as="geometry" />
        </mxCell>
        <mxCell id="nnhNoNJ5YSR0U6Bdxa66-8" value="" style="endArrow=classic;html=1;rounded=0;exitX=0.42;exitY=1.04;exitDx=0;exitDy=0;exitPerimeter=0;" edge="1" parent="1">
          <mxGeometry width="50" height="50" relative="1" as="geometry">
            <mxPoint x="401" y="266.6" as="sourcePoint" />
            <mxPoint x="401" y="295" as="targetPoint" />
          </mxGeometry>
        </mxCell>
        <mxCell id="nnhNoNJ5YSR0U6Bdxa66-9" value="" style="endArrow=classic;html=1;rounded=0;exitX=0;exitY=0.5;exitDx=0;exitDy=0;" edge="1" parent="1" source="nnhNoNJ5YSR0U6Bdxa66-7">
          <mxGeometry width="50" height="50" relative="1" as="geometry">
            <mxPoint x="421" y="190.60000000000002" as="sourcePoint" />
            <mxPoint x="40" y="233" as="targetPoint" />
          </mxGeometry>
        </mxCell>
        <mxCell id="nnhNoNJ5YSR0U6Bdxa66-10" value="Yes" style="text;html=1;strokeColor=none;fillColor=none;align=center;verticalAlign=middle;whiteSpace=wrap;rounded=0;" vertex="1" parent="1">
          <mxGeometry x="412" y="268" width="39" height="18" as="geometry" />
        </mxCell>
        <mxCell id="nnhNoNJ5YSR0U6Bdxa66-11" value="No" style="text;html=1;strokeColor=none;fillColor=none;align=center;verticalAlign=middle;whiteSpace=wrap;rounded=0;" vertex="1" parent="1">
          <mxGeometry x="321" y="220" width="42" height="18" as="geometry" />
        </mxCell>
        <mxCell id="nnhNoNJ5YSR0U6Bdxa66-12" value="Verify bus documents and generate unique bus id" style="rounded=0;whiteSpace=wrap;html=1;" vertex="1" parent="1">
          <mxGeometry x="321" y="295" width="165" height="32" as="geometry" />
        </mxCell>
        <mxCell id="nnhNoNJ5YSR0U6Bdxa66-13" value="" style="endArrow=classic;html=1;rounded=0;exitX=0.42;exitY=1.04;exitDx=0;exitDy=0;exitPerimeter=0;" edge="1" parent="1">
          <mxGeometry width="50" height="50" relative="1" as="geometry">
            <mxPoint x="400" y="327" as="sourcePoint" />
            <mxPoint x="400" y="360" as="targetPoint" />
          </mxGeometry>
        </mxCell>
        <mxCell id="nnhNoNJ5YSR0U6Bdxa66-14" value="" style="endArrow=classic;html=1;rounded=0;exitX=0.42;exitY=1.04;exitDx=0;exitDy=0;exitPerimeter=0;" edge="1" parent="1">
          <mxGeometry width="50" height="50" relative="1" as="geometry">
            <mxPoint x="530" y="358.6" as="sourcePoint" />
            <mxPoint x="530" y="387" as="targetPoint" />
          </mxGeometry>
        </mxCell>
        <mxCell id="nnhNoNJ5YSR0U6Bdxa66-15" value="" style="endArrow=classic;html=1;rounded=0;exitX=0.42;exitY=1.04;exitDx=0;exitDy=0;exitPerimeter=0;" edge="1" parent="1">
          <mxGeometry width="50" height="50" relative="1" as="geometry">
            <mxPoint x="301" y="356.6" as="sourcePoint" />
            <mxPoint x="301" y="385" as="targetPoint" />
          </mxGeometry>
        </mxCell>
        <mxCell id="nnhNoNJ5YSR0U6Bdxa66-16" value="" style="endArrow=classic;html=1;rounded=0;exitX=0.42;exitY=1.04;exitDx=0;exitDy=0;exitPerimeter=0;" edge="1" parent="1">
          <mxGeometry width="50" height="50" relative="1" as="geometry">
            <mxPoint x="721" y="357.6" as="sourcePoint" />
            <mxPoint x="721" y="386" as="targetPoint" />
          </mxGeometry>
        </mxCell>
        <mxCell id="nnhNoNJ5YSR0U6Bdxa66-17" value="" style="endArrow=classic;html=1;rounded=0;exitX=0.42;exitY=1.04;exitDx=0;exitDy=0;exitPerimeter=0;" edge="1" parent="1">
          <mxGeometry width="50" height="50" relative="1" as="geometry">
            <mxPoint x="121" y="356.6" as="sourcePoint" />
            <mxPoint x="121" y="385" as="targetPoint" />
          </mxGeometry>
        </mxCell>
        <mxCell id="nnhNoNJ5YSR0U6Bdxa66-18" value="" style="endArrow=none;html=1;rounded=0;" edge="1" parent="1">
          <mxGeometry width="50" height="50" relative="1" as="geometry">
            <mxPoint x="120" y="360" as="sourcePoint" />
            <mxPoint x="720" y="360" as="targetPoint" />
          </mxGeometry>
        </mxCell>
        <mxCell id="nnhNoNJ5YSR0U6Bdxa66-20" value="Update ?" style="rhombus;whiteSpace=wrap;html=1;" vertex="1" parent="1">
          <mxGeometry x="246" y="386" width="120" height="32" as="geometry" />
        </mxCell>
        <mxCell id="nnhNoNJ5YSR0U6Bdxa66-21" value="Delete ?" style="rhombus;whiteSpace=wrap;html=1;" vertex="1" parent="1">
          <mxGeometry x="480" y="386" width="120" height="32" as="geometry" />
        </mxCell>
        <mxCell id="nnhNoNJ5YSR0U6Bdxa66-22" value="View ?" style="rhombus;whiteSpace=wrap;html=1;" vertex="1" parent="1">
          <mxGeometry x="670" y="386" width="120" height="32" as="geometry" />
        </mxCell>
        <mxCell id="nnhNoNJ5YSR0U6Bdxa66-23" value="Add new bus details" style="rounded=0;whiteSpace=wrap;html=1;" vertex="1" parent="1">
          <mxGeometry x="68" y="441" width="120" height="32" as="geometry" />
        </mxCell>
        <mxCell id="nnhNoNJ5YSR0U6Bdxa66-24" value="Add bus number / id" style="rounded=0;whiteSpace=wrap;html=1;" vertex="1" parent="1">
          <mxGeometry x="69" y="500" width="120" height="32" as="geometry" />
        </mxCell>
        <mxCell id="nnhNoNJ5YSR0U6Bdxa66-25" value="Add bus route" style="rounded=0;whiteSpace=wrap;html=1;" vertex="1" parent="1">
          <mxGeometry x="68" y="560" width="120" height="32" as="geometry" />
        </mxCell>
        <mxCell id="nnhNoNJ5YSR0U6Bdxa66-26" value="Add the customer details" style="rounded=0;whiteSpace=wrap;html=1;" vertex="1" parent="1">
          <mxGeometry x="69" y="620" width="120" height="32" as="geometry" />
        </mxCell>
        <mxCell id="nnhNoNJ5YSR0U6Bdxa66-27" value="Add the driver details" style="rounded=0;whiteSpace=wrap;html=1;" vertex="1" parent="1">
          <mxGeometry x="69" y="680" width="120" height="32" as="geometry" />
        </mxCell>
        <mxCell id="ThGlJFpSvN6_bR-ahhk8-1" value="" style="endArrow=classic;html=1;rounded=0;exitX=0.42;exitY=1.04;exitDx=0;exitDy=0;exitPerimeter=0;" edge="1" parent="1">
          <mxGeometry width="50" height="50" relative="1" as="geometry">
            <mxPoint x="131" y="415.6" as="sourcePoint" />
            <mxPoint x="131" y="444" as="targetPoint" />
          </mxGeometry>
        </mxCell>
        <mxCell id="ThGlJFpSvN6_bR-ahhk8-2" value="" style="endArrow=classic;html=1;rounded=0;exitX=0.42;exitY=1.04;exitDx=0;exitDy=0;exitPerimeter=0;" edge="1" parent="1">
          <mxGeometry width="50" height="50" relative="1" as="geometry">
            <mxPoint x="130" y="472.6" as="sourcePoint" />
            <mxPoint x="130" y="501" as="targetPoint" />
          </mxGeometry>
        </mxCell>
        <mxCell id="ThGlJFpSvN6_bR-ahhk8-3" value="" style="endArrow=classic;html=1;rounded=0;exitX=0.42;exitY=1.04;exitDx=0;exitDy=0;exitPerimeter=0;" edge="1" parent="1">
          <mxGeometry width="50" height="50" relative="1" as="geometry">
            <mxPoint x="131" y="532.6" as="sourcePoint" />
            <mxPoint x="131" y="561" as="targetPoint" />
          </mxGeometry>
        </mxCell>
        <mxCell id="ThGlJFpSvN6_bR-ahhk8-4" value="" style="endArrow=classic;html=1;rounded=0;exitX=0.42;exitY=1.04;exitDx=0;exitDy=0;exitPerimeter=0;" edge="1" parent="1">
          <mxGeometry width="50" height="50" relative="1" as="geometry">
            <mxPoint x="131" y="592.6" as="sourcePoint" />
            <mxPoint x="131" y="621" as="targetPoint" />
          </mxGeometry>
        </mxCell>
        <mxCell id="ThGlJFpSvN6_bR-ahhk8-5" value="" style="endArrow=classic;html=1;rounded=0;exitX=0.42;exitY=1.04;exitDx=0;exitDy=0;exitPerimeter=0;" edge="1" parent="1">
          <mxGeometry width="50" height="50" relative="1" as="geometry">
            <mxPoint x="131" y="652.6" as="sourcePoint" />
            <mxPoint x="131" y="681" as="targetPoint" />
          </mxGeometry>
        </mxCell>
        <mxCell id="ThGlJFpSvN6_bR-ahhk8-6" value="Update existing bus details" style="rounded=0;whiteSpace=wrap;html=1;" vertex="1" parent="1">
          <mxGeometry x="246" y="440.5" width="120" height="32" as="geometry" />
        </mxCell>
        <mxCell id="ThGlJFpSvN6_bR-ahhk8-7" value="Update bus number / id" style="rounded=0;whiteSpace=wrap;html=1;" vertex="1" parent="1">
          <mxGeometry x="247" y="499.5" width="120" height="32" as="geometry" />
        </mxCell>
        <mxCell id="ThGlJFpSvN6_bR-ahhk8-8" value="Update bus route" style="rounded=0;whiteSpace=wrap;html=1;" vertex="1" parent="1">
          <mxGeometry x="246" y="559.5" width="120" height="32" as="geometry" />
        </mxCell>
        <mxCell id="bnHi7CzuVj1rxlUhOVnx-22" value="" style="edgeStyle=orthogonalEdgeStyle;rounded=0;orthogonalLoop=1;jettySize=auto;html=1;" edge="1" parent="1" source="ThGlJFpSvN6_bR-ahhk8-9" target="ThGlJFpSvN6_bR-ahhk8-10">
          <mxGeometry relative="1" as="geometry" />
        </mxCell>
        <mxCell id="bnHi7CzuVj1rxlUhOVnx-24" value="" style="edgeStyle=orthogonalEdgeStyle;rounded=0;orthogonalLoop=1;jettySize=auto;html=1;" edge="1" parent="1" source="ThGlJFpSvN6_bR-ahhk8-9" target="ThGlJFpSvN6_bR-ahhk8-10">
          <mxGeometry relative="1" as="geometry" />
        </mxCell>
        <mxCell id="ThGlJFpSvN6_bR-ahhk8-9" value="Update the customer details" style="rounded=0;whiteSpace=wrap;html=1;" vertex="1" parent="1">
          <mxGeometry x="247" y="619.5" width="120" height="30.5" as="geometry" />
        </mxCell>
        <mxCell id="ThGlJFpSvN6_bR-ahhk8-10" value="Update&amp;nbsp;the driver details" style="rounded=0;whiteSpace=wrap;html=1;" vertex="1" parent="1">
          <mxGeometry x="247" y="680" width="120" height="31.5" as="geometry" />
        </mxCell>
        <mxCell id="ThGlJFpSvN6_bR-ahhk8-11" value="" style="endArrow=classic;html=1;rounded=0;exitX=0.42;exitY=1.04;exitDx=0;exitDy=0;exitPerimeter=0;" edge="1" parent="1">
          <mxGeometry width="50" height="50" relative="1" as="geometry">
            <mxPoint x="308" y="472.1" as="sourcePoint" />
            <mxPoint x="308" y="500.5" as="targetPoint" />
          </mxGeometry>
        </mxCell>
        <mxCell id="ThGlJFpSvN6_bR-ahhk8-12" value="" style="endArrow=classic;html=1;rounded=0;exitX=0.42;exitY=1.04;exitDx=0;exitDy=0;exitPerimeter=0;" edge="1" parent="1">
          <mxGeometry width="50" height="50" relative="1" as="geometry">
            <mxPoint x="309" y="532.1" as="sourcePoint" />
            <mxPoint x="309" y="560.5" as="targetPoint" />
          </mxGeometry>
        </mxCell>
        <mxCell id="ThGlJFpSvN6_bR-ahhk8-13" value="" style="endArrow=classic;html=1;rounded=0;exitX=0.42;exitY=1.04;exitDx=0;exitDy=0;exitPerimeter=0;" edge="1" parent="1">
          <mxGeometry width="50" height="50" relative="1" as="geometry">
            <mxPoint x="309" y="592.1" as="sourcePoint" />
            <mxPoint x="309" y="620.5" as="targetPoint" />
          </mxGeometry>
        </mxCell>
        <mxCell id="ThGlJFpSvN6_bR-ahhk8-24" value="Delete bus details" style="rounded=0;whiteSpace=wrap;html=1;" vertex="1" parent="1">
          <mxGeometry x="490" y="440" width="120" height="32" as="geometry" />
        </mxCell>
        <mxCell id="ThGlJFpSvN6_bR-ahhk8-25" value="Delete bus number / id" style="rounded=0;whiteSpace=wrap;html=1;" vertex="1" parent="1">
          <mxGeometry x="491" y="499" width="120" height="32" as="geometry" />
        </mxCell>
        <mxCell id="ThGlJFpSvN6_bR-ahhk8-26" value="Delete bus route" style="rounded=0;whiteSpace=wrap;html=1;" vertex="1" parent="1">
          <mxGeometry x="490" y="559" width="120" height="32" as="geometry" />
        </mxCell>
        <mxCell id="ThGlJFpSvN6_bR-ahhk8-27" value="Delete&amp;nbsp;the customer details" style="rounded=0;whiteSpace=wrap;html=1;" vertex="1" parent="1">
          <mxGeometry x="491" y="619" width="120" height="32" as="geometry" />
        </mxCell>
        <mxCell id="ThGlJFpSvN6_bR-ahhk8-28" value="Delete the driver details" style="rounded=0;whiteSpace=wrap;html=1;" vertex="1" parent="1">
          <mxGeometry x="491" y="679" width="120" height="32" as="geometry" />
        </mxCell>
        <mxCell id="ThGlJFpSvN6_bR-ahhk8-29" value="" style="endArrow=classic;html=1;rounded=0;exitX=0.42;exitY=1.04;exitDx=0;exitDy=0;exitPerimeter=0;" edge="1" parent="1">
          <mxGeometry width="50" height="50" relative="1" as="geometry">
            <mxPoint x="552" y="471.6" as="sourcePoint" />
            <mxPoint x="552" y="500" as="targetPoint" />
          </mxGeometry>
        </mxCell>
        <mxCell id="ThGlJFpSvN6_bR-ahhk8-30" value="" style="endArrow=classic;html=1;rounded=0;exitX=0.42;exitY=1.04;exitDx=0;exitDy=0;exitPerimeter=0;" edge="1" parent="1">
          <mxGeometry width="50" height="50" relative="1" as="geometry">
            <mxPoint x="553" y="531.6" as="sourcePoint" />
            <mxPoint x="553" y="560" as="targetPoint" />
          </mxGeometry>
        </mxCell>
        <mxCell id="ThGlJFpSvN6_bR-ahhk8-31" value="" style="endArrow=classic;html=1;rounded=0;exitX=0.42;exitY=1.04;exitDx=0;exitDy=0;exitPerimeter=0;" edge="1" parent="1">
          <mxGeometry width="50" height="50" relative="1" as="geometry">
            <mxPoint x="553" y="591.6" as="sourcePoint" />
            <mxPoint x="553" y="620" as="targetPoint" />
          </mxGeometry>
        </mxCell>
        <mxCell id="ThGlJFpSvN6_bR-ahhk8-32" value="" style="endArrow=classic;html=1;rounded=0;exitX=0.42;exitY=1.04;exitDx=0;exitDy=0;exitPerimeter=0;" edge="1" parent="1">
          <mxGeometry width="50" height="50" relative="1" as="geometry">
            <mxPoint x="553" y="651.6" as="sourcePoint" />
            <mxPoint x="553" y="680" as="targetPoint" />
          </mxGeometry>
        </mxCell>
        <mxCell id="ThGlJFpSvN6_bR-ahhk8-33" value="View bus details" style="rounded=0;whiteSpace=wrap;html=1;" vertex="1" parent="1">
          <mxGeometry x="670" y="440" width="120" height="32" as="geometry" />
        </mxCell>
        <mxCell id="ThGlJFpSvN6_bR-ahhk8-34" value="View&amp;nbsp;bus number / id" style="rounded=0;whiteSpace=wrap;html=1;" vertex="1" parent="1">
          <mxGeometry x="671" y="499" width="120" height="32" as="geometry" />
        </mxCell>
        <mxCell id="ThGlJFpSvN6_bR-ahhk8-35" value="View&amp;nbsp;bus route" style="rounded=0;whiteSpace=wrap;html=1;" vertex="1" parent="1">
          <mxGeometry x="670" y="559" width="120" height="32" as="geometry" />
        </mxCell>
        <mxCell id="ThGlJFpSvN6_bR-ahhk8-36" value="View&amp;nbsp;the customer details" style="rounded=0;whiteSpace=wrap;html=1;" vertex="1" parent="1">
          <mxGeometry x="671" y="619" width="120" height="32" as="geometry" />
        </mxCell>
        <mxCell id="ThGlJFpSvN6_bR-ahhk8-37" value="View&amp;nbsp;the driver details" style="rounded=0;whiteSpace=wrap;html=1;" vertex="1" parent="1">
          <mxGeometry x="671" y="679" width="120" height="32" as="geometry" />
        </mxCell>
        <mxCell id="ThGlJFpSvN6_bR-ahhk8-38" value="" style="endArrow=classic;html=1;rounded=0;exitX=0.42;exitY=1.04;exitDx=0;exitDy=0;exitPerimeter=0;" edge="1" parent="1">
          <mxGeometry width="50" height="50" relative="1" as="geometry">
            <mxPoint x="732" y="471.6" as="sourcePoint" />
            <mxPoint x="732" y="500" as="targetPoint" />
          </mxGeometry>
        </mxCell>
        <mxCell id="ThGlJFpSvN6_bR-ahhk8-39" value="" style="endArrow=classic;html=1;rounded=0;exitX=0.42;exitY=1.04;exitDx=0;exitDy=0;exitPerimeter=0;" edge="1" parent="1">
          <mxGeometry width="50" height="50" relative="1" as="geometry">
            <mxPoint x="733" y="531.6" as="sourcePoint" />
            <mxPoint x="733" y="560" as="targetPoint" />
          </mxGeometry>
        </mxCell>
        <mxCell id="ThGlJFpSvN6_bR-ahhk8-40" value="" style="endArrow=classic;html=1;rounded=0;exitX=0.42;exitY=1.04;exitDx=0;exitDy=0;exitPerimeter=0;" edge="1" parent="1">
          <mxGeometry width="50" height="50" relative="1" as="geometry">
            <mxPoint x="733" y="591.6" as="sourcePoint" />
            <mxPoint x="733" y="620" as="targetPoint" />
          </mxGeometry>
        </mxCell>
        <mxCell id="ThGlJFpSvN6_bR-ahhk8-41" value="" style="endArrow=classic;html=1;rounded=0;exitX=0.42;exitY=1.04;exitDx=0;exitDy=0;exitPerimeter=0;" edge="1" parent="1">
          <mxGeometry width="50" height="50" relative="1" as="geometry">
            <mxPoint x="733" y="651.6" as="sourcePoint" />
            <mxPoint x="733" y="680" as="targetPoint" />
          </mxGeometry>
        </mxCell>
        <mxCell id="ThGlJFpSvN6_bR-ahhk8-42" value="" style="endArrow=classic;html=1;rounded=0;exitX=0.42;exitY=1.04;exitDx=0;exitDy=0;exitPerimeter=0;" edge="1" parent="1">
          <mxGeometry width="50" height="50" relative="1" as="geometry">
            <mxPoint x="301" y="416.6" as="sourcePoint" />
            <mxPoint x="301" y="445" as="targetPoint" />
          </mxGeometry>
        </mxCell>
        <mxCell id="ThGlJFpSvN6_bR-ahhk8-43" value="" style="endArrow=classic;html=1;rounded=0;exitX=0.42;exitY=1.04;exitDx=0;exitDy=0;exitPerimeter=0;" edge="1" parent="1">
          <mxGeometry width="50" height="50" relative="1" as="geometry">
            <mxPoint x="541" y="417.6" as="sourcePoint" />
            <mxPoint x="541" y="446" as="targetPoint" />
          </mxGeometry>
        </mxCell>
        <mxCell id="ThGlJFpSvN6_bR-ahhk8-44" value="" style="endArrow=classic;html=1;rounded=0;exitX=0.42;exitY=1.04;exitDx=0;exitDy=0;exitPerimeter=0;" edge="1" parent="1">
          <mxGeometry width="50" height="50" relative="1" as="geometry">
            <mxPoint x="731" y="417.6" as="sourcePoint" />
            <mxPoint x="731" y="446" as="targetPoint" />
          </mxGeometry>
        </mxCell>
        <mxCell id="ThGlJFpSvN6_bR-ahhk8-45" value="" style="endArrow=none;html=1;rounded=0;" edge="1" parent="1">
          <mxGeometry width="50" height="50" relative="1" as="geometry">
            <mxPoint x="120" y="739" as="sourcePoint" />
            <mxPoint x="740" y="739" as="targetPoint" />
          </mxGeometry>
        </mxCell>
        <mxCell id="ThGlJFpSvN6_bR-ahhk8-47" value="" style="endArrow=classic;html=1;rounded=0;exitX=0.42;exitY=1.04;exitDx=0;exitDy=0;exitPerimeter=0;" edge="1" parent="1">
          <mxGeometry width="50" height="50" relative="1" as="geometry">
            <mxPoint x="739" y="711.1" as="sourcePoint" />
            <mxPoint x="739" y="739.5" as="targetPoint" />
          </mxGeometry>
        </mxCell>
        <mxCell id="ThGlJFpSvN6_bR-ahhk8-51" value="" style="endArrow=classic;html=1;rounded=0;exitX=0.42;exitY=1.04;exitDx=0;exitDy=0;exitPerimeter=0;" edge="1" parent="1">
          <mxGeometry width="50" height="50" relative="1" as="geometry">
            <mxPoint x="559" y="711.1" as="sourcePoint" />
            <mxPoint x="559" y="739.5" as="targetPoint" />
          </mxGeometry>
        </mxCell>
        <mxCell id="ThGlJFpSvN6_bR-ahhk8-52" value="" style="endArrow=classic;html=1;rounded=0;exitX=0.42;exitY=1.04;exitDx=0;exitDy=0;exitPerimeter=0;" edge="1" parent="1">
          <mxGeometry width="50" height="50" relative="1" as="geometry">
            <mxPoint x="309" y="711.1" as="sourcePoint" />
            <mxPoint x="309" y="739.5" as="targetPoint" />
          </mxGeometry>
        </mxCell>
        <mxCell id="ThGlJFpSvN6_bR-ahhk8-53" value="" style="endArrow=classic;html=1;rounded=0;exitX=0.42;exitY=1.04;exitDx=0;exitDy=0;exitPerimeter=0;" edge="1" parent="1">
          <mxGeometry width="50" height="50" relative="1" as="geometry">
            <mxPoint x="119" y="711.1" as="sourcePoint" />
            <mxPoint x="119" y="739.5" as="targetPoint" />
          </mxGeometry>
        </mxCell>
        <mxCell id="ThGlJFpSvN6_bR-ahhk8-54" value="" style="endArrow=classic;html=1;rounded=0;exitX=0.42;exitY=1.04;exitDx=0;exitDy=0;exitPerimeter=0;" edge="1" parent="1" source="bnHi7CzuVj1rxlUhOVnx-16">
          <mxGeometry width="50" height="50" relative="1" as="geometry">
            <mxPoint x="439" y="741.1" as="sourcePoint" />
            <mxPoint x="439.7272760800902" y="782.0001844049548" as="targetPoint" />
          </mxGeometry>
        </mxCell>
        <mxCell id="ThGlJFpSvN6_bR-ahhk8-56" value="" style="endArrow=none;html=1;rounded=0;" edge="1" parent="1">
          <mxGeometry width="50" height="50" relative="1" as="geometry">
            <mxPoint x="40" y="760" as="sourcePoint" />
            <mxPoint x="40" y="230" as="targetPoint" />
          </mxGeometry>
        </mxCell>
        <mxCell id="ThGlJFpSvN6_bR-ahhk8-57" value="" style="endArrow=classic;html=1;rounded=0;" edge="1" parent="1">
          <mxGeometry width="50" height="50" relative="1" as="geometry">
            <mxPoint x="40" y="760" as="sourcePoint" />
            <mxPoint x="440" y="760" as="targetPoint" />
          </mxGeometry>
        </mxCell>
        <mxCell id="bnHi7CzuVj1rxlUhOVnx-1" value="Add ?&amp;nbsp;" style="rhombus;whiteSpace=wrap;html=1;" vertex="1" parent="1">
          <mxGeometry x="90" y="380" width="69" height="40" as="geometry" />
        </mxCell>
        <mxCell id="bnHi7CzuVj1rxlUhOVnx-2" value="Yes" style="text;html=1;strokeColor=none;fillColor=none;align=center;verticalAlign=middle;whiteSpace=wrap;rounded=0;" vertex="1" parent="1">
          <mxGeometry x="69" y="414" width="39" height="18" as="geometry" />
        </mxCell>
        <mxCell id="bnHi7CzuVj1rxlUhOVnx-3" value="Yes" style="text;html=1;strokeColor=none;fillColor=none;align=center;verticalAlign=middle;whiteSpace=wrap;rounded=0;" vertex="1" parent="1">
          <mxGeometry x="269" y="424" width="39" height="18" as="geometry" />
        </mxCell>
        <mxCell id="bnHi7CzuVj1rxlUhOVnx-4" value="Yes" style="text;html=1;strokeColor=none;fillColor=none;align=center;verticalAlign=middle;whiteSpace=wrap;rounded=0;" vertex="1" parent="1">
          <mxGeometry x="499" y="424" width="39" height="18" as="geometry" />
        </mxCell>
        <mxCell id="bnHi7CzuVj1rxlUhOVnx-5" value="Yes" style="text;html=1;strokeColor=none;fillColor=none;align=center;verticalAlign=middle;whiteSpace=wrap;rounded=0;" vertex="1" parent="1">
          <mxGeometry x="689" y="414" width="39" height="18" as="geometry" />
        </mxCell>
        <mxCell id="bnHi7CzuVj1rxlUhOVnx-6" value="" style="endArrow=classic;html=1;rounded=0;" edge="1" parent="1">
          <mxGeometry width="50" height="50" relative="1" as="geometry">
            <mxPoint x="160" y="400" as="sourcePoint" />
            <mxPoint x="240" y="400" as="targetPoint" />
          </mxGeometry>
        </mxCell>
        <mxCell id="bnHi7CzuVj1rxlUhOVnx-7" value="" style="endArrow=classic;html=1;rounded=0;" edge="1" parent="1" target="nnhNoNJ5YSR0U6Bdxa66-21">
          <mxGeometry width="50" height="50" relative="1" as="geometry">
            <mxPoint x="360" y="402" as="sourcePoint" />
            <mxPoint x="440" y="402" as="targetPoint" />
          </mxGeometry>
        </mxCell>
        <mxCell id="bnHi7CzuVj1rxlUhOVnx-8" value="" style="endArrow=classic;html=1;rounded=0;" edge="1" parent="1">
          <mxGeometry width="50" height="50" relative="1" as="geometry">
            <mxPoint x="599" y="401" as="sourcePoint" />
            <mxPoint x="679" y="401" as="targetPoint" />
          </mxGeometry>
        </mxCell>
        <mxCell id="bnHi7CzuVj1rxlUhOVnx-9" value="No" style="text;html=1;strokeColor=none;fillColor=none;align=center;verticalAlign=middle;whiteSpace=wrap;rounded=0;" vertex="1" parent="1">
          <mxGeometry x="180" y="380" width="42" height="18" as="geometry" />
        </mxCell>
        <mxCell id="bnHi7CzuVj1rxlUhOVnx-10" value="No" style="text;html=1;strokeColor=none;fillColor=none;align=center;verticalAlign=middle;whiteSpace=wrap;rounded=0;" vertex="1" parent="1">
          <mxGeometry x="390" y="380" width="42" height="18" as="geometry" />
        </mxCell>
        <mxCell id="bnHi7CzuVj1rxlUhOVnx-11" value="No" style="text;html=1;strokeColor=none;fillColor=none;align=center;verticalAlign=middle;whiteSpace=wrap;rounded=0;" vertex="1" parent="1">
          <mxGeometry x="610" y="380" width="42" height="18" as="geometry" />
        </mxCell>
        <mxCell id="bnHi7CzuVj1rxlUhOVnx-12" value="" style="endArrow=classic;html=1;rounded=0;" edge="1" parent="1">
          <mxGeometry width="50" height="50" relative="1" as="geometry">
            <mxPoint x="789" y="401" as="sourcePoint" />
            <mxPoint x="830" y="400" as="targetPoint" />
          </mxGeometry>
        </mxCell>
        <mxCell id="bnHi7CzuVj1rxlUhOVnx-13" value="No" style="text;html=1;strokeColor=none;fillColor=none;align=center;verticalAlign=middle;whiteSpace=wrap;rounded=0;" vertex="1" parent="1">
          <mxGeometry x="790" y="380" width="42" height="18" as="geometry" />
        </mxCell>
        <mxCell id="bnHi7CzuVj1rxlUhOVnx-15" value="" style="endArrow=classic;html=1;rounded=0;exitX=0.5;exitY=1;exitDx=0;exitDy=0;" edge="1" parent="1">
          <mxGeometry width="50" height="50" relative="1" as="geometry">
            <mxPoint x="440" y="812" as="sourcePoint" />
            <mxPoint x="440" y="840" as="targetPoint" />
          </mxGeometry>
        </mxCell>
        <mxCell id="bnHi7CzuVj1rxlUhOVnx-17" value="" style="endArrow=classic;html=1;rounded=0;exitX=0.42;exitY=1.04;exitDx=0;exitDy=0;exitPerimeter=0;" edge="1" parent="1" target="bnHi7CzuVj1rxlUhOVnx-16">
          <mxGeometry width="50" height="50" relative="1" as="geometry">
            <mxPoint x="439" y="741.1" as="sourcePoint" />
            <mxPoint x="439.7272760800902" y="782.0001844049548" as="targetPoint" />
          </mxGeometry>
        </mxCell>
        <mxCell id="bnHi7CzuVj1rxlUhOVnx-16" value="Logout" style="rounded=0;whiteSpace=wrap;html=1;" vertex="1" parent="1">
          <mxGeometry x="390" y="788" width="101" height="30" as="geometry" />
        </mxCell>
        <mxCell id="bnHi7CzuVj1rxlUhOVnx-18" value="Stop" style="ellipse;whiteSpace=wrap;html=1;" vertex="1" parent="1">
          <mxGeometry x="379" y="840" width="120" height="40" as="geometry" />
        </mxCell>
        <mxCell id="bnHi7CzuVj1rxlUhOVnx-19" value="" style="endArrow=none;html=1;rounded=0;" edge="1" parent="1">
          <mxGeometry width="50" height="50" relative="1" as="geometry">
            <mxPoint x="830" y="770" as="sourcePoint" />
            <mxPoint x="830" y="400" as="targetPoint" />
          </mxGeometry>
        </mxCell>
        <mxCell id="bnHi7CzuVj1rxlUhOVnx-20" value="" style="endArrow=classic;html=1;rounded=0;" edge="1" parent="1">
          <mxGeometry width="50" height="50" relative="1" as="geometry">
            <mxPoint x="830" y="770" as="sourcePoint" />
            <mxPoint x="440" y="770" as="targetPoint" />
          </mxGeometry>
        </mxCell>
      </root>
    </mxGraphModel>
  </diagram>
  <diagram id="2sd7fHjbYr2hOj6U13yZ" name="User">
    <mxGraphModel grid="1" page="1" gridSize="10" guides="1" tooltips="1" connect="1" arrows="1" fold="1" pageScale="1" pageWidth="850" pageHeight="1100" background="none" math="0" shadow="0">
      <root>
        <mxCell id="0" />
        <mxCell id="1" parent="0" />
        <mxCell id="4JYAkx3TaJvfyyZtMHOo-1" value="Start" style="strokeWidth=2;html=1;shape=mxgraph.flowchart.start_1;whiteSpace=wrap;fontFamily=Times New Roman;fontSize=13;fontStyle=0;rounded=0;" vertex="1" parent="1">
          <mxGeometry x="350" y="10" width="100" height="60" as="geometry" />
        </mxCell>
        <mxCell id="4JYAkx3TaJvfyyZtMHOo-2" value="" style="endArrow=classic;html=1;rounded=0;exitX=0.5;exitY=1;exitDx=0;exitDy=0;exitPerimeter=0;fontFamily=Times New Roman;fontSize=13;fontStyle=0;" edge="1" parent="1" source="4JYAkx3TaJvfyyZtMHOo-1" target="4JYAkx3TaJvfyyZtMHOo-3">
          <mxGeometry width="50" height="50" relative="1" as="geometry">
            <mxPoint x="380" y="230" as="sourcePoint" />
            <mxPoint x="400" y="120" as="targetPoint" />
          </mxGeometry>
        </mxCell>
        <mxCell id="4JYAkx3TaJvfyyZtMHOo-3" value="Open the website&amp;nbsp;" style="rounded=0;whiteSpace=wrap;html=1;fontFamily=Times New Roman;fontSize=13;fontStyle=0;" vertex="1" parent="1">
          <mxGeometry x="305" y="90" width="190" height="60" as="geometry" />
        </mxCell>
        <mxCell id="4JYAkx3TaJvfyyZtMHOo-4" value="" style="endArrow=classic;html=1;rounded=0;exitX=0.5;exitY=1;exitDx=0;exitDy=0;fontFamily=Times New Roman;fontSize=13;fontStyle=0;" edge="1" parent="1" source="4JYAkx3TaJvfyyZtMHOo-3">
          <mxGeometry width="50" height="50" relative="1" as="geometry">
            <mxPoint x="380" y="380" as="sourcePoint" />
            <mxPoint x="400" y="190" as="targetPoint" />
          </mxGeometry>
        </mxCell>
        <mxCell id="4JYAkx3TaJvfyyZtMHOo-5" value="Enter the necessary details to registration" style="rounded=0;whiteSpace=wrap;html=1;fontFamily=Times New Roman;fontSize=13;fontStyle=0;" vertex="1" parent="1">
          <mxGeometry x="600" y="200" width="180" height="60" as="geometry" />
        </mxCell>
        <mxCell id="4JYAkx3TaJvfyyZtMHOo-6" value="Enter the login credentials" style="rounded=0;whiteSpace=wrap;html=1;fontFamily=Times New Roman;fontSize=13;fontStyle=0;" vertex="1" parent="1">
          <mxGeometry x="310" y="290" width="180" height="60" as="geometry" />
        </mxCell>
        <mxCell id="4JYAkx3TaJvfyyZtMHOo-7" value="Is Valid ?" style="rhombus;whiteSpace=wrap;html=1;fontFamily=Times New Roman;fontSize=13;fontStyle=0;rounded=0;" vertex="1" parent="1">
          <mxGeometry x="345" y="380" width="110" height="90" as="geometry" />
        </mxCell>
        <mxCell id="4JYAkx3TaJvfyyZtMHOo-8" value="" style="endArrow=classic;html=1;rounded=0;fontFamily=Times New Roman;fontSize=13;fontStyle=0;entryX=0.5;entryY=0;entryDx=0;entryDy=0;" edge="1" parent="1" target="4JYAkx3TaJvfyyZtMHOo-6">
          <mxGeometry width="50" height="50" relative="1" as="geometry">
            <mxPoint x="400" y="251" as="sourcePoint" />
            <mxPoint x="400" y="279" as="targetPoint" />
          </mxGeometry>
        </mxCell>
        <mxCell id="4JYAkx3TaJvfyyZtMHOo-9" value="" style="endArrow=classic;html=1;rounded=0;exitX=0.5;exitY=1;exitDx=0;exitDy=0;fontFamily=Times New Roman;fontSize=13;fontStyle=0;" edge="1" parent="1">
          <mxGeometry width="50" height="50" relative="1" as="geometry">
            <mxPoint x="398" y="341" as="sourcePoint" />
            <mxPoint x="398" y="381" as="targetPoint" />
          </mxGeometry>
        </mxCell>
        <mxCell id="4JYAkx3TaJvfyyZtMHOo-10" value="" style="endArrow=classic;html=1;rounded=0;exitX=0.5;exitY=1;exitDx=0;exitDy=0;fontFamily=Times New Roman;fontSize=13;fontStyle=0;" edge="1" parent="1">
          <mxGeometry width="50" height="50" relative="1" as="geometry">
            <mxPoint x="399.41" y="470" as="sourcePoint" />
            <mxPoint x="399.41" y="510" as="targetPoint" />
          </mxGeometry>
        </mxCell>
        <mxCell id="4JYAkx3TaJvfyyZtMHOo-11" value="Yes" style="text;html=1;strokeColor=none;fillColor=none;align=center;verticalAlign=middle;whiteSpace=wrap;rounded=0;fontFamily=Times New Roman;fontSize=13;fontStyle=0;" vertex="1" parent="1">
          <mxGeometry x="408" y="470" width="35" height="30" as="geometry" />
        </mxCell>
        <mxCell id="4JYAkx3TaJvfyyZtMHOo-12" value="Select the starting point&amp;nbsp;" style="rounded=0;whiteSpace=wrap;html=1;fontFamily=Times New Roman;fontSize=13;fontStyle=0;" vertex="1" parent="1">
          <mxGeometry x="315" y="510" width="180" height="60" as="geometry" />
        </mxCell>
        <mxCell id="4JYAkx3TaJvfyyZtMHOo-13" value="" style="endArrow=classic;html=1;rounded=0;exitX=0.5;exitY=1;exitDx=0;exitDy=0;fontFamily=Times New Roman;fontSize=13;fontStyle=0;" edge="1" parent="1">
          <mxGeometry width="50" height="50" relative="1" as="geometry">
            <mxPoint x="399.41" y="569" as="sourcePoint" />
            <mxPoint x="399.41" y="609" as="targetPoint" />
          </mxGeometry>
        </mxCell>
        <mxCell id="4JYAkx3TaJvfyyZtMHOo-14" value="Is starting &lt;br style=&quot;font-size: 13px;&quot;&gt;point found ?" style="rhombus;whiteSpace=wrap;html=1;fontFamily=Times New Roman;fontSize=13;fontStyle=0;rounded=0;" vertex="1" parent="1">
          <mxGeometry x="345" y="610" width="110" height="90" as="geometry" />
        </mxCell>
        <mxCell id="4JYAkx3TaJvfyyZtMHOo-15" value="Yes" style="text;html=1;strokeColor=none;fillColor=none;align=center;verticalAlign=middle;whiteSpace=wrap;rounded=0;fontFamily=Times New Roman;fontSize=13;fontStyle=0;" vertex="1" parent="1">
          <mxGeometry x="408" y="700" width="35" height="30" as="geometry" />
        </mxCell>
        <mxCell id="4JYAkx3TaJvfyyZtMHOo-16" value="" style="endArrow=classic;html=1;rounded=0;exitX=0.5;exitY=1;exitDx=0;exitDy=0;fontFamily=Times New Roman;fontSize=13;fontStyle=0;" edge="1" parent="1">
          <mxGeometry width="50" height="50" relative="1" as="geometry">
            <mxPoint x="399.41" y="700" as="sourcePoint" />
            <mxPoint x="399.41" y="740" as="targetPoint" />
          </mxGeometry>
        </mxCell>
        <mxCell id="4JYAkx3TaJvfyyZtMHOo-17" value="Select the destination" style="rounded=0;whiteSpace=wrap;html=1;fontFamily=Times New Roman;fontSize=13;fontStyle=0;" vertex="1" parent="1">
          <mxGeometry x="315" y="740" width="180" height="60" as="geometry" />
        </mxCell>
        <mxCell id="4JYAkx3TaJvfyyZtMHOo-18" value="" style="endArrow=classic;html=1;rounded=0;exitX=0.5;exitY=1;exitDx=0;exitDy=0;fontFamily=Times New Roman;fontSize=13;fontStyle=0;" edge="1" parent="1">
          <mxGeometry width="50" height="50" relative="1" as="geometry">
            <mxPoint x="398.41" y="799" as="sourcePoint" />
            <mxPoint x="398.41" y="839" as="targetPoint" />
          </mxGeometry>
        </mxCell>
        <mxCell id="4JYAkx3TaJvfyyZtMHOo-19" value="Is destination&lt;br style=&quot;font-size: 13px;&quot;&gt;&amp;nbsp;found ?" style="rhombus;whiteSpace=wrap;html=1;fontFamily=Times New Roman;fontSize=13;fontStyle=0;rounded=0;" vertex="1" parent="1">
          <mxGeometry x="343" y="839" width="110" height="90" as="geometry" />
        </mxCell>
        <mxCell id="4JYAkx3TaJvfyyZtMHOo-20" value="" style="endArrow=classic;html=1;rounded=0;exitX=0.5;exitY=1;exitDx=0;exitDy=0;fontFamily=Times New Roman;fontSize=13;fontStyle=0;" edge="1" parent="1">
          <mxGeometry width="50" height="50" relative="1" as="geometry">
            <mxPoint x="398.41" y="927" as="sourcePoint" />
            <mxPoint x="398.41" y="967" as="targetPoint" />
          </mxGeometry>
        </mxCell>
        <mxCell id="4JYAkx3TaJvfyyZtMHOo-21" value="Yes" style="text;html=1;strokeColor=none;fillColor=none;align=center;verticalAlign=middle;whiteSpace=wrap;rounded=0;fontFamily=Times New Roman;fontSize=13;fontStyle=0;" vertex="1" parent="1">
          <mxGeometry x="415" y="929" width="35" height="30" as="geometry" />
        </mxCell>
        <mxCell id="4JYAkx3TaJvfyyZtMHOo-22" value="Select the no.of.seats" style="rounded=0;whiteSpace=wrap;html=1;fontFamily=Times New Roman;fontSize=13;fontStyle=0;" vertex="1" parent="1">
          <mxGeometry x="315" y="970" width="180" height="60" as="geometry" />
        </mxCell>
        <mxCell id="4JYAkx3TaJvfyyZtMHOo-23" value="" style="endArrow=classic;html=1;rounded=0;exitX=0.5;exitY=1;exitDx=0;exitDy=0;fontFamily=Times New Roman;fontSize=13;fontStyle=0;" edge="1" parent="1">
          <mxGeometry width="50" height="50" relative="1" as="geometry">
            <mxPoint x="399.55" y="1030" as="sourcePoint" />
            <mxPoint x="399.55" y="1070" as="targetPoint" />
          </mxGeometry>
        </mxCell>
        <mxCell id="4JYAkx3TaJvfyyZtMHOo-24" value="if seat is &lt;br style=&quot;font-size: 13px;&quot;&gt;available ?" style="rhombus;whiteSpace=wrap;html=1;fontFamily=Times New Roman;fontSize=13;fontStyle=0;rounded=0;" vertex="1" parent="1">
          <mxGeometry x="343" y="1070" width="110" height="90" as="geometry" />
        </mxCell>
        <mxCell id="4JYAkx3TaJvfyyZtMHOo-25" value="" style="endArrow=classic;html=1;rounded=0;exitX=0.5;exitY=1;exitDx=0;exitDy=0;fontFamily=Times New Roman;fontSize=13;fontStyle=0;" edge="1" parent="1">
          <mxGeometry width="50" height="50" relative="1" as="geometry">
            <mxPoint x="397.55" y="1160" as="sourcePoint" />
            <mxPoint x="397.55" y="1200" as="targetPoint" />
          </mxGeometry>
        </mxCell>
        <mxCell id="4JYAkx3TaJvfyyZtMHOo-26" value="Yes" style="text;html=1;strokeColor=none;fillColor=none;align=center;verticalAlign=middle;whiteSpace=wrap;rounded=0;fontFamily=Times New Roman;fontSize=13;fontStyle=0;" vertex="1" parent="1">
          <mxGeometry x="408" y="1160" width="35" height="30" as="geometry" />
        </mxCell>
        <mxCell id="4JYAkx3TaJvfyyZtMHOo-27" value="Select price range" style="rounded=0;whiteSpace=wrap;html=1;fontFamily=Times New Roman;fontSize=13;fontStyle=0;" vertex="1" parent="1">
          <mxGeometry x="310" y="1200" width="180" height="60" as="geometry" />
        </mxCell>
        <mxCell id="4JYAkx3TaJvfyyZtMHOo-28" value="" style="endArrow=classic;html=1;rounded=0;exitX=0.5;exitY=1;exitDx=0;exitDy=0;fontFamily=Times New Roman;fontSize=13;fontStyle=0;" edge="1" parent="1">
          <mxGeometry width="50" height="50" relative="1" as="geometry">
            <mxPoint x="399.5" y="1258" as="sourcePoint" />
            <mxPoint x="399.5" y="1298" as="targetPoint" />
          </mxGeometry>
        </mxCell>
        <mxCell id="4JYAkx3TaJvfyyZtMHOo-29" value="Is it ok ?" style="rhombus;whiteSpace=wrap;html=1;fontFamily=Times New Roman;fontSize=13;fontStyle=0;rounded=0;" vertex="1" parent="1">
          <mxGeometry x="344" y="1299" width="110" height="90" as="geometry" />
        </mxCell>
        <mxCell id="4JYAkx3TaJvfyyZtMHOo-30" value="Yes" style="text;html=1;strokeColor=none;fillColor=none;align=center;verticalAlign=middle;whiteSpace=wrap;rounded=0;fontFamily=Times New Roman;fontSize=13;fontStyle=0;" vertex="1" parent="1">
          <mxGeometry x="408" y="1389" width="35" height="30" as="geometry" />
        </mxCell>
        <mxCell id="4JYAkx3TaJvfyyZtMHOo-31" value="" style="endArrow=classic;html=1;rounded=0;exitX=0.5;exitY=1;exitDx=0;exitDy=0;fontFamily=Times New Roman;fontSize=13;fontStyle=0;" edge="1" parent="1">
          <mxGeometry width="50" height="50" relative="1" as="geometry">
            <mxPoint x="399.5" y="1389" as="sourcePoint" />
            <mxPoint x="399.5" y="1429" as="targetPoint" />
          </mxGeometry>
        </mxCell>
        <mxCell id="4JYAkx3TaJvfyyZtMHOo-32" value="Select Travel Time" style="rounded=0;whiteSpace=wrap;html=1;fontFamily=Times New Roman;fontSize=13;fontStyle=0;" vertex="1" parent="1">
          <mxGeometry x="315" y="1430" width="180" height="60" as="geometry" />
        </mxCell>
        <mxCell id="4JYAkx3TaJvfyyZtMHOo-33" value="Is ok ?" style="rhombus;whiteSpace=wrap;html=1;fontFamily=Times New Roman;fontSize=13;fontStyle=0;rounded=0;" vertex="1" parent="1">
          <mxGeometry x="350" y="1530" width="110" height="60" as="geometry" />
        </mxCell>
        <mxCell id="4JYAkx3TaJvfyyZtMHOo-34" value="" style="endArrow=classic;html=1;rounded=0;exitX=0.5;exitY=1;exitDx=0;exitDy=0;fontFamily=Times New Roman;fontSize=13;fontStyle=0;" edge="1" parent="1">
          <mxGeometry width="50" height="50" relative="1" as="geometry">
            <mxPoint x="404.5" y="1490" as="sourcePoint" />
            <mxPoint x="404.5" y="1530" as="targetPoint" />
          </mxGeometry>
        </mxCell>
        <mxCell id="4JYAkx3TaJvfyyZtMHOo-35" value="" style="endArrow=classic;html=1;rounded=0;exitX=0.5;exitY=1;exitDx=0;exitDy=0;fontFamily=Times New Roman;fontSize=13;fontStyle=0;" edge="1" parent="1">
          <mxGeometry width="50" height="50" relative="1" as="geometry">
            <mxPoint x="399.5" y="1590" as="sourcePoint" />
            <mxPoint x="399.5" y="1630" as="targetPoint" />
          </mxGeometry>
        </mxCell>
        <mxCell id="4JYAkx3TaJvfyyZtMHOo-43" value="" style="endArrow=classic;html=1;rounded=0;fontFamily=Times New Roman;fontSize=13;fontStyle=0;" edge="1" parent="1">
          <mxGeometry width="50" height="50" relative="1" as="geometry">
            <mxPoint x="351" y="420" as="sourcePoint" />
            <mxPoint x="221" y="420" as="targetPoint" />
          </mxGeometry>
        </mxCell>
        <mxCell id="4JYAkx3TaJvfyyZtMHOo-44" value="No" style="text;html=1;strokeColor=none;fillColor=none;align=center;verticalAlign=middle;whiteSpace=wrap;rounded=0;fontFamily=Times New Roman;fontSize=13;fontStyle=0;" vertex="1" parent="1">
          <mxGeometry x="280" y="390" width="35" height="30" as="geometry" />
        </mxCell>
        <mxCell id="4JYAkx3TaJvfyyZtMHOo-45" value="Display &quot;Invalid user and Password&quot;" style="shape=parallelogram;perimeter=parallelogramPerimeter;whiteSpace=wrap;html=1;fixedSize=1;fontFamily=Times New Roman;fontSize=13;fontStyle=0;rounded=0;" vertex="1" parent="1">
          <mxGeometry x="60" y="395" width="170" height="60" as="geometry" />
        </mxCell>
        <mxCell id="4JYAkx3TaJvfyyZtMHOo-46" value="" style="endArrow=classic;html=1;rounded=0;exitX=0.348;exitY=0.995;exitDx=0;exitDy=0;exitPerimeter=0;fontFamily=Times New Roman;fontSize=13;fontStyle=0;entryX=0;entryY=0.5;entryDx=0;entryDy=0;" edge="1" parent="1" source="4JYAkx3TaJvfyyZtMHOo-45" target="4JYAkx3TaJvfyyZtMHOo-40">
          <mxGeometry width="50" height="50" relative="1" as="geometry">
            <mxPoint x="120" y="530" as="sourcePoint" />
            <mxPoint x="130" y="2360" as="targetPoint" />
            <Array as="points">
              <mxPoint x="140" y="2720" />
            </Array>
          </mxGeometry>
        </mxCell>
        <mxCell id="4JYAkx3TaJvfyyZtMHOo-48" value="" style="endArrow=classic;html=1;rounded=0;exitX=0;exitY=0.5;exitDx=0;exitDy=0;fontFamily=Times New Roman;fontSize=13;fontStyle=0;" edge="1" parent="1" source="4JYAkx3TaJvfyyZtMHOo-14">
          <mxGeometry width="50" height="50" relative="1" as="geometry">
            <mxPoint x="272.5" y="690" as="sourcePoint" />
            <mxPoint x="240" y="655" as="targetPoint" />
          </mxGeometry>
        </mxCell>
        <mxCell id="4JYAkx3TaJvfyyZtMHOo-49" value="No" style="text;html=1;strokeColor=none;fillColor=none;align=center;verticalAlign=middle;whiteSpace=wrap;rounded=0;fontFamily=Times New Roman;fontSize=13;fontStyle=0;" vertex="1" parent="1">
          <mxGeometry x="300" y="630" width="35" height="30" as="geometry" />
        </mxCell>
        <mxCell id="4JYAkx3TaJvfyyZtMHOo-50" value="" style="endArrow=classic;html=1;rounded=0;fontFamily=Times New Roman;fontSize=13;fontStyle=0;" edge="1" parent="1">
          <mxGeometry width="50" height="50" relative="1" as="geometry">
            <mxPoint x="241" y="655" as="sourcePoint" />
            <mxPoint x="241" y="545" as="targetPoint" />
          </mxGeometry>
        </mxCell>
        <mxCell id="4JYAkx3TaJvfyyZtMHOo-51" value="" style="endArrow=classic;html=1;rounded=0;entryX=0;entryY=0.5;entryDx=0;entryDy=0;fontFamily=Times New Roman;fontSize=13;fontStyle=0;" edge="1" parent="1">
          <mxGeometry width="50" height="50" relative="1" as="geometry">
            <mxPoint x="240" y="546" as="sourcePoint" />
            <mxPoint x="315" y="546" as="targetPoint" />
          </mxGeometry>
        </mxCell>
        <mxCell id="4JYAkx3TaJvfyyZtMHOo-52" value="" style="endArrow=classic;html=1;rounded=0;exitX=0;exitY=0.5;exitDx=0;exitDy=0;fontFamily=Times New Roman;fontSize=13;fontStyle=0;" edge="1" parent="1">
          <mxGeometry width="50" height="50" relative="1" as="geometry">
            <mxPoint x="345" y="883.55" as="sourcePoint" />
            <mxPoint x="240" y="883.55" as="targetPoint" />
          </mxGeometry>
        </mxCell>
        <mxCell id="4JYAkx3TaJvfyyZtMHOo-53" value="" style="endArrow=classic;html=1;rounded=0;fontFamily=Times New Roman;fontSize=13;fontStyle=0;" edge="1" parent="1">
          <mxGeometry width="50" height="50" relative="1" as="geometry">
            <mxPoint x="241" y="885" as="sourcePoint" />
            <mxPoint x="241" y="775" as="targetPoint" />
          </mxGeometry>
        </mxCell>
        <mxCell id="4JYAkx3TaJvfyyZtMHOo-54" value="" style="endArrow=classic;html=1;rounded=0;entryX=0;entryY=0.5;entryDx=0;entryDy=0;fontFamily=Times New Roman;fontSize=13;fontStyle=0;" edge="1" parent="1">
          <mxGeometry width="50" height="50" relative="1" as="geometry">
            <mxPoint x="240" y="775.55" as="sourcePoint" />
            <mxPoint x="315" y="775.55" as="targetPoint" />
          </mxGeometry>
        </mxCell>
        <mxCell id="4JYAkx3TaJvfyyZtMHOo-55" value="" style="endArrow=classic;html=1;rounded=0;exitX=0;exitY=0.5;exitDx=0;exitDy=0;fontFamily=Times New Roman;fontSize=13;fontStyle=0;" edge="1" parent="1">
          <mxGeometry width="50" height="50" relative="1" as="geometry">
            <mxPoint x="345" y="1114.55" as="sourcePoint" />
            <mxPoint x="240" y="1114.55" as="targetPoint" />
          </mxGeometry>
        </mxCell>
        <mxCell id="4JYAkx3TaJvfyyZtMHOo-56" value="No" style="text;html=1;strokeColor=none;fillColor=none;align=center;verticalAlign=middle;whiteSpace=wrap;rounded=0;fontFamily=Times New Roman;fontSize=13;fontStyle=0;" vertex="1" parent="1">
          <mxGeometry x="300" y="850" width="35" height="30" as="geometry" />
        </mxCell>
        <mxCell id="4JYAkx3TaJvfyyZtMHOo-57" value="No" style="text;html=1;strokeColor=none;fillColor=none;align=center;verticalAlign=middle;whiteSpace=wrap;rounded=0;fontFamily=Times New Roman;fontSize=13;fontStyle=0;" vertex="1" parent="1">
          <mxGeometry x="305" y="1080" width="35" height="30" as="geometry" />
        </mxCell>
        <mxCell id="4JYAkx3TaJvfyyZtMHOo-58" value="" style="endArrow=classic;html=1;rounded=0;fontFamily=Times New Roman;fontSize=13;fontStyle=0;" edge="1" parent="1">
          <mxGeometry width="50" height="50" relative="1" as="geometry">
            <mxPoint x="240" y="1116" as="sourcePoint" />
            <mxPoint x="240" y="1006" as="targetPoint" />
          </mxGeometry>
        </mxCell>
        <mxCell id="4JYAkx3TaJvfyyZtMHOo-59" value="" style="endArrow=classic;html=1;rounded=0;entryX=0;entryY=0.5;entryDx=0;entryDy=0;fontFamily=Times New Roman;fontSize=13;fontStyle=0;" edge="1" parent="1">
          <mxGeometry width="50" height="50" relative="1" as="geometry">
            <mxPoint x="239" y="1006.55" as="sourcePoint" />
            <mxPoint x="314" y="1006.55" as="targetPoint" />
          </mxGeometry>
        </mxCell>
        <mxCell id="4JYAkx3TaJvfyyZtMHOo-60" value="" style="endArrow=classic;html=1;rounded=0;exitX=0;exitY=0.5;exitDx=0;exitDy=0;fontFamily=Times New Roman;fontSize=13;fontStyle=0;" edge="1" parent="1">
          <mxGeometry width="50" height="50" relative="1" as="geometry">
            <mxPoint x="345" y="1343.55" as="sourcePoint" />
            <mxPoint x="240" y="1343.55" as="targetPoint" />
          </mxGeometry>
        </mxCell>
        <mxCell id="4JYAkx3TaJvfyyZtMHOo-61" value="No" style="text;html=1;strokeColor=none;fillColor=none;align=center;verticalAlign=middle;whiteSpace=wrap;rounded=0;fontFamily=Times New Roman;fontSize=13;fontStyle=0;" vertex="1" parent="1">
          <mxGeometry x="300" y="1310" width="35" height="30" as="geometry" />
        </mxCell>
        <mxCell id="4JYAkx3TaJvfyyZtMHOo-62" value="" style="endArrow=classic;html=1;rounded=0;fontFamily=Times New Roman;fontSize=13;fontStyle=0;" edge="1" parent="1">
          <mxGeometry width="50" height="50" relative="1" as="geometry">
            <mxPoint x="240" y="1345" as="sourcePoint" />
            <mxPoint x="240" y="1235" as="targetPoint" />
          </mxGeometry>
        </mxCell>
        <mxCell id="4JYAkx3TaJvfyyZtMHOo-63" value="" style="endArrow=classic;html=1;rounded=0;entryX=0;entryY=0.5;entryDx=0;entryDy=0;fontFamily=Times New Roman;fontSize=13;fontStyle=0;" edge="1" parent="1">
          <mxGeometry width="50" height="50" relative="1" as="geometry">
            <mxPoint x="238" y="1236" as="sourcePoint" />
            <mxPoint x="313" y="1236" as="targetPoint" />
          </mxGeometry>
        </mxCell>
        <mxCell id="4JYAkx3TaJvfyyZtMHOo-64" value="register or &lt;br&gt;login&lt;br&gt;?" style="rhombus;whiteSpace=wrap;html=1;rounded=0;" vertex="1" parent="1">
          <mxGeometry x="340" y="190" width="120" height="80" as="geometry" />
        </mxCell>
        <mxCell id="4JYAkx3TaJvfyyZtMHOo-65" value="Login" style="text;html=1;strokeColor=none;fillColor=none;align=center;verticalAlign=middle;whiteSpace=wrap;rounded=0;fontFamily=Times New Roman;fontSize=13;fontStyle=0;" vertex="1" parent="1">
          <mxGeometry x="427" y="260" width="35" height="30" as="geometry" />
        </mxCell>
        <mxCell id="4JYAkx3TaJvfyyZtMHOo-66" value="" style="endArrow=classic;html=1;rounded=0;exitX=1;exitY=0.5;exitDx=0;exitDy=0;fontFamily=Times New Roman;fontSize=13;fontStyle=0;" edge="1" parent="1" source="4JYAkx3TaJvfyyZtMHOo-64">
          <mxGeometry width="50" height="50" relative="1" as="geometry">
            <mxPoint x="410" y="160" as="sourcePoint" />
            <mxPoint x="600" y="230" as="targetPoint" />
          </mxGeometry>
        </mxCell>
        <mxCell id="4JYAkx3TaJvfyyZtMHOo-67" value="Register" style="text;html=1;strokeColor=none;fillColor=none;align=center;verticalAlign=middle;whiteSpace=wrap;rounded=0;fontFamily=Times New Roman;fontSize=13;fontStyle=0;" vertex="1" parent="1">
          <mxGeometry x="495" y="200" width="35" height="30" as="geometry" />
        </mxCell>
        <mxCell id="4JYAkx3TaJvfyyZtMHOo-68" value="" style="endArrow=classic;html=1;rounded=0;exitX=0.145;exitY=0.354;exitDx=0;exitDy=0;entryX=1;entryY=0.5;entryDx=0;entryDy=0;exitPerimeter=0;" edge="1" parent="1">
          <mxGeometry width="50" height="50" relative="1" as="geometry">
            <mxPoint x="637.4000000000001" y="330.31999999999994" as="sourcePoint" />
            <mxPoint x="490" y="331" as="targetPoint" />
          </mxGeometry>
        </mxCell>
        <mxCell id="4JYAkx3TaJvfyyZtMHOo-69" value="Is correct ?" style="rhombus;whiteSpace=wrap;html=1;rounded=0;" vertex="1" parent="1">
          <mxGeometry x="620" y="291" width="120" height="80" as="geometry" />
        </mxCell>
        <mxCell id="4JYAkx3TaJvfyyZtMHOo-70" value="Yes" style="text;html=1;strokeColor=none;fillColor=none;align=center;verticalAlign=middle;whiteSpace=wrap;rounded=0;fontFamily=Times New Roman;fontSize=13;fontStyle=0;" vertex="1" parent="1">
          <mxGeometry x="585" y="305" width="35" height="30" as="geometry" />
        </mxCell>
        <mxCell id="4JYAkx3TaJvfyyZtMHOo-71" value="" style="endArrow=classic;html=1;rounded=0;fontFamily=Times New Roman;fontSize=13;fontStyle=0;entryX=0.5;entryY=0;entryDx=0;entryDy=0;" edge="1" parent="1">
          <mxGeometry width="50" height="50" relative="1" as="geometry">
            <mxPoint x="679" y="260" as="sourcePoint" />
            <mxPoint x="679.44" y="294.5" as="targetPoint" />
          </mxGeometry>
        </mxCell>
        <mxCell id="4JYAkx3TaJvfyyZtMHOo-72" value="" style="endArrow=classic;html=1;rounded=0;exitX=0.5;exitY=1;exitDx=0;exitDy=0;" edge="1" parent="1" source="4JYAkx3TaJvfyyZtMHOo-69">
          <mxGeometry width="50" height="50" relative="1" as="geometry">
            <mxPoint x="510" y="650" as="sourcePoint" />
            <mxPoint x="680" y="610" as="targetPoint" />
          </mxGeometry>
        </mxCell>
        <mxCell id="4JYAkx3TaJvfyyZtMHOo-73" value="No" style="text;html=1;strokeColor=none;fillColor=none;align=center;verticalAlign=middle;whiteSpace=wrap;rounded=0;fontFamily=Times New Roman;fontSize=13;fontStyle=0;" vertex="1" parent="1">
          <mxGeometry x="690" y="455" width="35" height="30" as="geometry" />
        </mxCell>
        <mxCell id="4JYAkx3TaJvfyyZtMHOo-74" value="Display &quot;Enter correct details&quot;" style="shape=parallelogram;perimeter=parallelogramPerimeter;whiteSpace=wrap;html=1;fixedSize=1;fontFamily=Times New Roman;fontSize=13;fontStyle=0;rounded=0;" vertex="1" parent="1">
          <mxGeometry x="595" y="610" width="195" height="60" as="geometry" />
        </mxCell>
        <mxCell id="4JYAkx3TaJvfyyZtMHOo-75" value="" style="endArrow=classic;html=1;rounded=0;exitX=0.5;exitY=1;exitDx=0;exitDy=0;entryX=1;entryY=0.5;entryDx=0;entryDy=0;" edge="1" parent="1" target="4JYAkx3TaJvfyyZtMHOo-42">
          <mxGeometry width="50" height="50" relative="1" as="geometry">
            <mxPoint x="679.44" y="670" as="sourcePoint" />
            <mxPoint x="680" y="2420" as="targetPoint" />
            <Array as="points">
              <mxPoint x="700" y="2820" />
            </Array>
          </mxGeometry>
        </mxCell>
        <mxCell id="sbcOgWOia8ythZga9Y55-1" value="Yes" style="text;html=1;strokeColor=none;fillColor=none;align=center;verticalAlign=middle;whiteSpace=wrap;rounded=0;fontFamily=Times New Roman;fontSize=13;fontStyle=0;" vertex="1" parent="1">
          <mxGeometry x="415" y="1590" width="35" height="30" as="geometry" />
        </mxCell>
        <mxCell id="sbcOgWOia8ythZga9Y55-2" value="" style="endArrow=classic;html=1;rounded=0;exitX=0;exitY=0.5;exitDx=0;exitDy=0;fontFamily=Times New Roman;fontSize=13;fontStyle=0;" edge="1" parent="1">
          <mxGeometry width="50" height="50" relative="1" as="geometry">
            <mxPoint x="353" y="1559.55" as="sourcePoint" />
            <mxPoint x="248" y="1559.55" as="targetPoint" />
          </mxGeometry>
        </mxCell>
        <mxCell id="sbcOgWOia8ythZga9Y55-3" value="" style="endArrow=classic;html=1;rounded=0;fontFamily=Times New Roman;fontSize=13;fontStyle=0;" edge="1" parent="1">
          <mxGeometry width="50" height="50" relative="1" as="geometry">
            <mxPoint x="250" y="1559" as="sourcePoint" />
            <mxPoint x="250" y="1449" as="targetPoint" />
          </mxGeometry>
        </mxCell>
        <mxCell id="sbcOgWOia8ythZga9Y55-4" value="" style="endArrow=classic;html=1;rounded=0;entryX=0;entryY=0.5;entryDx=0;entryDy=0;fontFamily=Times New Roman;fontSize=13;fontStyle=0;" edge="1" parent="1">
          <mxGeometry width="50" height="50" relative="1" as="geometry">
            <mxPoint x="245" y="1451" as="sourcePoint" />
            <mxPoint x="320" y="1451" as="targetPoint" />
          </mxGeometry>
        </mxCell>
        <mxCell id="sbcOgWOia8ythZga9Y55-5" value="No" style="text;html=1;strokeColor=none;fillColor=none;align=center;verticalAlign=middle;whiteSpace=wrap;rounded=0;fontFamily=Times New Roman;fontSize=13;fontStyle=0;" vertex="1" parent="1">
          <mxGeometry x="300" y="1530" width="35" height="30" as="geometry" />
        </mxCell>
        <mxCell id="sbcOgWOia8ythZga9Y55-21" value="Enter the passenger details" style="rounded=0;whiteSpace=wrap;html=1;fontFamily=Times New Roman;fontSize=13;fontStyle=0;" vertex="1" parent="1">
          <mxGeometry x="322" y="1630" width="180" height="60" as="geometry" />
        </mxCell>
        <mxCell id="sbcOgWOia8ythZga9Y55-22" value="" style="endArrow=classic;html=1;rounded=0;exitX=0.5;exitY=1;exitDx=0;exitDy=0;fontFamily=Times New Roman;fontSize=13;fontStyle=0;" edge="1" parent="1">
          <mxGeometry width="50" height="50" relative="1" as="geometry">
            <mxPoint x="411.5" y="1688" as="sourcePoint" />
            <mxPoint x="411.5" y="1728" as="targetPoint" />
          </mxGeometry>
        </mxCell>
        <mxCell id="sbcOgWOia8ythZga9Y55-26" value="Confirm your ticket" style="rounded=0;whiteSpace=wrap;html=1;fontFamily=Times New Roman;fontSize=13;fontStyle=0;" vertex="1" parent="1">
          <mxGeometry x="327" y="1860" width="180" height="60" as="geometry" />
        </mxCell>
        <mxCell id="sbcOgWOia8ythZga9Y55-27" value="Pay amount through online&amp;nbsp;" style="rounded=0;whiteSpace=wrap;html=1;fontFamily=Times New Roman;fontSize=13;fontStyle=0;" vertex="1" parent="1">
          <mxGeometry x="327" y="1960" width="180" height="60" as="geometry" />
        </mxCell>
        <mxCell id="sbcOgWOia8ythZga9Y55-28" value="" style="endArrow=classic;html=1;rounded=0;exitX=0.5;exitY=1;exitDx=0;exitDy=0;fontFamily=Times New Roman;fontSize=13;fontStyle=0;" edge="1" parent="1">
          <mxGeometry width="50" height="50" relative="1" as="geometry">
            <mxPoint x="411.5" y="2020" as="sourcePoint" />
            <mxPoint x="411.5" y="2060" as="targetPoint" />
          </mxGeometry>
        </mxCell>
        <mxCell id="sbcOgWOia8ythZga9Y55-35" value="" style="endArrow=classic;html=1;rounded=0;exitX=0.5;exitY=1;exitDx=0;exitDy=0;fontFamily=Times New Roman;fontSize=13;fontStyle=0;" edge="1" parent="1">
          <mxGeometry width="50" height="50" relative="1" as="geometry">
            <mxPoint x="411.5" y="1919" as="sourcePoint" />
            <mxPoint x="411.5" y="1959" as="targetPoint" />
          </mxGeometry>
        </mxCell>
        <mxCell id="4JYAkx3TaJvfyyZtMHOo-36" value="Receive the tickets from email &amp;amp; tickets are confirmed." style="rounded=0;whiteSpace=wrap;html=1;fontFamily=Times New Roman;fontSize=13;fontStyle=0;" vertex="1" parent="1">
          <mxGeometry x="327" y="2070" width="180" height="60" as="geometry" />
        </mxCell>
        <mxCell id="4JYAkx3TaJvfyyZtMHOo-37" value="" style="endArrow=classic;html=1;rounded=0;exitX=0.5;exitY=1;exitDx=0;exitDy=0;fontFamily=Times New Roman;fontSize=13;fontStyle=0;" edge="1" parent="1" target="4JYAkx3TaJvfyyZtMHOo-38">
          <mxGeometry width="50" height="50" relative="1" as="geometry">
            <mxPoint x="411.5" y="2130" as="sourcePoint" />
            <mxPoint x="411.5" y="2170" as="targetPoint" />
          </mxGeometry>
        </mxCell>
        <mxCell id="4JYAkx3TaJvfyyZtMHOo-38" value="Display &quot;tickets booked successfully&quot;.&amp;nbsp;" style="shape=parallelogram;perimeter=parallelogramPerimeter;whiteSpace=wrap;html=1;fixedSize=1;fontFamily=Times New Roman;fontSize=13;fontStyle=0;rounded=0;" vertex="1" parent="1">
          <mxGeometry x="324" y="2160" width="180" height="60" as="geometry" />
        </mxCell>
        <mxCell id="4JYAkx3TaJvfyyZtMHOo-39" value="" style="endArrow=classic;html=1;rounded=0;exitX=0.5;exitY=1;exitDx=0;exitDy=0;fontFamily=Times New Roman;fontSize=13;fontStyle=0;" edge="1" parent="1">
          <mxGeometry width="50" height="50" relative="1" as="geometry">
            <mxPoint x="413.25" y="2220" as="sourcePoint" />
            <mxPoint x="413" y="2260" as="targetPoint" />
          </mxGeometry>
        </mxCell>
        <mxCell id="sbcOgWOia8ythZga9Y55-36" value="" style="group;rounded=0;" connectable="0" vertex="1" parent="1">
          <mxGeometry x="352" y="2690" width="120" height="170" as="geometry" />
        </mxCell>
        <mxCell id="4JYAkx3TaJvfyyZtMHOo-40" value="Logout" style="rounded=0;whiteSpace=wrap;html=1;fontFamily=Times New Roman;fontSize=13;fontStyle=0;" vertex="1" parent="sbcOgWOia8ythZga9Y55-36">
          <mxGeometry width="120" height="60" as="geometry" />
        </mxCell>
        <mxCell id="4JYAkx3TaJvfyyZtMHOo-41" value="" style="endArrow=classic;html=1;rounded=0;exitX=0.5;exitY=1;exitDx=0;exitDy=0;fontFamily=Times New Roman;fontSize=13;fontStyle=0;" edge="1" parent="sbcOgWOia8ythZga9Y55-36" target="4JYAkx3TaJvfyyZtMHOo-42">
          <mxGeometry width="50" height="50" relative="1" as="geometry">
            <mxPoint x="59.25" y="60" as="sourcePoint" />
            <mxPoint x="60.75" y="90" as="targetPoint" />
          </mxGeometry>
        </mxCell>
        <mxCell id="4JYAkx3TaJvfyyZtMHOo-42" value="Stop" style="ellipse;whiteSpace=wrap;html=1;fontFamily=Times New Roman;fontSize=13;fontStyle=0;rounded=0;" vertex="1" parent="sbcOgWOia8ythZga9Y55-36">
          <mxGeometry y="90" width="120" height="80" as="geometry" />
        </mxCell>
        <mxCell id="sbcOgWOia8ythZga9Y55-38" value="" style="group;rounded=0;" connectable="0" vertex="1" parent="1">
          <mxGeometry x="250" y="1665" width="216" height="194" as="geometry" />
        </mxCell>
        <mxCell id="sbcOgWOia8ythZga9Y55-23" value="Add more&lt;br style=&quot;font-size: 13px;&quot;&gt;details&lt;br style=&quot;font-size: 13px;&quot;&gt;?" style="rhombus;whiteSpace=wrap;html=1;fontFamily=Times New Roman;fontSize=13;fontStyle=0;rounded=0;" vertex="1" parent="sbcOgWOia8ythZga9Y55-38">
          <mxGeometry x="106" y="64" width="110" height="90" as="geometry" />
        </mxCell>
        <mxCell id="sbcOgWOia8ythZga9Y55-24" value="No" style="text;html=1;strokeColor=none;fillColor=none;align=center;verticalAlign=middle;whiteSpace=wrap;rounded=0;fontFamily=Times New Roman;fontSize=13;fontStyle=0;" vertex="1" parent="sbcOgWOia8ythZga9Y55-38">
          <mxGeometry x="170" y="154" width="35" height="30" as="geometry" />
        </mxCell>
        <mxCell id="sbcOgWOia8ythZga9Y55-25" value="" style="endArrow=classic;html=1;rounded=0;exitX=0.5;exitY=1;exitDx=0;exitDy=0;fontFamily=Times New Roman;fontSize=13;fontStyle=0;" edge="1" parent="sbcOgWOia8ythZga9Y55-38">
          <mxGeometry width="50" height="50" relative="1" as="geometry">
            <mxPoint x="161.5" y="154" as="sourcePoint" />
            <mxPoint x="161.5" y="194" as="targetPoint" />
          </mxGeometry>
        </mxCell>
        <mxCell id="sbcOgWOia8ythZga9Y55-29" value="" style="endArrow=classic;html=1;rounded=0;exitX=0;exitY=0.5;exitDx=0;exitDy=0;fontFamily=Times New Roman;fontSize=13;fontStyle=0;" edge="1" parent="sbcOgWOia8ythZga9Y55-38">
          <mxGeometry width="50" height="50" relative="1" as="geometry">
            <mxPoint x="107" y="108.54999999999995" as="sourcePoint" />
            <mxPoint x="2" y="108.54999999999995" as="targetPoint" />
          </mxGeometry>
        </mxCell>
        <mxCell id="sbcOgWOia8ythZga9Y55-30" value="Yes" style="text;html=1;strokeColor=none;fillColor=none;align=center;verticalAlign=middle;whiteSpace=wrap;rounded=0;fontFamily=Times New Roman;fontSize=13;fontStyle=0;" vertex="1" parent="sbcOgWOia8ythZga9Y55-38">
          <mxGeometry x="62" y="75" width="35" height="30" as="geometry" />
        </mxCell>
        <mxCell id="sbcOgWOia8ythZga9Y55-31" value="" style="endArrow=classic;html=1;rounded=0;fontFamily=Times New Roman;fontSize=13;fontStyle=0;" edge="1" parent="sbcOgWOia8ythZga9Y55-38">
          <mxGeometry width="50" height="50" relative="1" as="geometry">
            <mxPoint x="2" y="110" as="sourcePoint" />
            <mxPoint x="2" as="targetPoint" />
          </mxGeometry>
        </mxCell>
        <mxCell id="sbcOgWOia8ythZga9Y55-32" value="" style="endArrow=classic;html=1;rounded=0;entryX=0;entryY=0.5;entryDx=0;entryDy=0;fontFamily=Times New Roman;fontSize=13;fontStyle=0;" edge="1" parent="sbcOgWOia8ythZga9Y55-38">
          <mxGeometry width="50" height="50" relative="1" as="geometry">
            <mxPoint y="1" as="sourcePoint" />
            <mxPoint x="75" y="1" as="targetPoint" />
          </mxGeometry>
        </mxCell>
        <mxCell id="sbcOgWOia8ythZga9Y55-39" value="" style="group;rounded=0;" connectable="0" vertex="1" parent="1">
          <mxGeometry x="250" y="2290" width="251" height="194" as="geometry" />
        </mxCell>
        <mxCell id="sbcOgWOia8ythZga9Y55-40" value="is cancellation?" style="rhombus;whiteSpace=wrap;html=1;fontFamily=Times New Roman;fontSize=13;fontStyle=0;rounded=0;" vertex="1" parent="sbcOgWOia8ythZga9Y55-39">
          <mxGeometry x="106" y="64" width="110" height="90" as="geometry" />
        </mxCell>
        <mxCell id="sbcOgWOia8ythZga9Y55-41" value="No" style="text;html=1;strokeColor=none;fillColor=none;align=center;verticalAlign=middle;whiteSpace=wrap;rounded=0;fontFamily=Times New Roman;fontSize=13;fontStyle=0;" vertex="1" parent="sbcOgWOia8ythZga9Y55-39">
          <mxGeometry x="170" y="154" width="35" height="30" as="geometry" />
        </mxCell>
        <mxCell id="sbcOgWOia8ythZga9Y55-42" value="" style="endArrow=classic;html=1;rounded=0;exitX=0.5;exitY=1;exitDx=0;exitDy=0;fontFamily=Times New Roman;fontSize=13;fontStyle=0;" edge="1" parent="sbcOgWOia8ythZga9Y55-39">
          <mxGeometry width="50" height="50" relative="1" as="geometry">
            <mxPoint x="161.5" y="154" as="sourcePoint" />
            <mxPoint x="161.5" y="194" as="targetPoint" />
          </mxGeometry>
        </mxCell>
        <mxCell id="sbcOgWOia8ythZga9Y55-43" value="" style="endArrow=classic;html=1;rounded=0;exitX=0;exitY=0.5;exitDx=0;exitDy=0;fontFamily=Times New Roman;fontSize=13;fontStyle=0;" edge="1" parent="sbcOgWOia8ythZga9Y55-39">
          <mxGeometry width="50" height="50" relative="1" as="geometry">
            <mxPoint x="107" y="108.54999999999995" as="sourcePoint" />
            <mxPoint x="2" y="108.54999999999995" as="targetPoint" />
          </mxGeometry>
        </mxCell>
        <mxCell id="sbcOgWOia8ythZga9Y55-44" value="Yes" style="text;html=1;strokeColor=none;fillColor=none;align=center;verticalAlign=middle;whiteSpace=wrap;rounded=0;fontFamily=Times New Roman;fontSize=13;fontStyle=0;" vertex="1" parent="sbcOgWOia8ythZga9Y55-39">
          <mxGeometry x="62" y="75" width="35" height="30" as="geometry" />
        </mxCell>
        <mxCell id="sbcOgWOia8ythZga9Y55-45" value="" style="endArrow=classic;html=1;rounded=0;fontFamily=Times New Roman;fontSize=13;fontStyle=0;" edge="1" parent="sbcOgWOia8ythZga9Y55-39">
          <mxGeometry width="50" height="50" relative="1" as="geometry">
            <mxPoint x="2" y="110" as="sourcePoint" />
            <mxPoint x="2" as="targetPoint" />
          </mxGeometry>
        </mxCell>
        <mxCell id="sbcOgWOia8ythZga9Y55-46" value="" style="endArrow=classic;html=1;rounded=0;entryX=0;entryY=0.5;entryDx=0;entryDy=0;fontFamily=Times New Roman;fontSize=13;fontStyle=0;" edge="1" parent="sbcOgWOia8ythZga9Y55-39">
          <mxGeometry width="50" height="50" relative="1" as="geometry">
            <mxPoint y="1" as="sourcePoint" />
            <mxPoint x="75" y="1" as="targetPoint" />
          </mxGeometry>
        </mxCell>
        <mxCell id="sbcOgWOia8ythZga9Y55-47" value="Cancel a ticket" style="rounded=0;whiteSpace=wrap;html=1;fontFamily=Times New Roman;fontSize=13;fontStyle=0;" vertex="1" parent="sbcOgWOia8ythZga9Y55-39">
          <mxGeometry x="71" y="-30" width="180" height="60" as="geometry" />
        </mxCell>
        <mxCell id="sbcOgWOia8ythZga9Y55-48" value="" style="endArrow=classic;html=1;rounded=0;exitX=0.5;exitY=1;exitDx=0;exitDy=0;fontFamily=Times New Roman;fontSize=13;fontStyle=0;" edge="1" parent="1">
          <mxGeometry width="50" height="50" relative="1" as="geometry">
            <mxPoint x="413.25" y="2320" as="sourcePoint" />
            <mxPoint x="413" y="2360" as="targetPoint" />
          </mxGeometry>
        </mxCell>
        <mxCell id="sbcOgWOia8ythZga9Y55-49" value="Review the bus" style="shape=parallelogram;perimeter=parallelogramPerimeter;whiteSpace=wrap;html=1;fixedSize=1;fontFamily=Times New Roman;fontSize=13;fontStyle=0;rounded=0;" vertex="1" parent="1">
          <mxGeometry x="324" y="2490" width="180" height="60" as="geometry" />
        </mxCell>
        <mxCell id="sbcOgWOia8ythZga9Y55-50" value="See travel history" style="rounded=0;whiteSpace=wrap;html=1;fontFamily=Times New Roman;fontSize=13;fontStyle=0;" vertex="1" parent="1">
          <mxGeometry x="327" y="2590" width="180" height="60" as="geometry" />
        </mxCell>
        <mxCell id="sbcOgWOia8ythZga9Y55-51" value="" style="endArrow=classic;html=1;rounded=0;exitX=0.5;exitY=1;exitDx=0;exitDy=0;fontFamily=Times New Roman;fontSize=13;fontStyle=0;" edge="1" parent="1">
          <mxGeometry width="50" height="50" relative="1" as="geometry">
            <mxPoint x="413.25" y="2550" as="sourcePoint" />
            <mxPoint x="413" y="2590" as="targetPoint" />
          </mxGeometry>
        </mxCell>
        <mxCell id="sbcOgWOia8ythZga9Y55-52" value="" style="endArrow=classic;html=1;rounded=0;exitX=0.5;exitY=1;exitDx=0;exitDy=0;fontFamily=Times New Roman;fontSize=13;fontStyle=0;" edge="1" parent="1">
          <mxGeometry width="50" height="50" relative="1" as="geometry">
            <mxPoint x="413.25" y="2650" as="sourcePoint" />
            <mxPoint x="413" y="2690" as="targetPoint" />
          </mxGeometry>
        </mxCell>
      </root>
    </mxGraphModel>
  </diagram>
  <diagram id="SnfKqpIlWuqO9R6N_gnw" name="class diagram">
    <mxGraphModel grid="1" page="1" gridSize="10" guides="1" tooltips="1" connect="1" arrows="1" fold="1" pageScale="1" pageWidth="850" pageHeight="1100" math="0" shadow="0">
      <root>
        <mxCell id="0" />
        <mxCell id="1" parent="0" />
        <mxCell id="nlqc5ojidWCJSM2kQyEX-1" value="Admin" style="swimlane;fontStyle=1;align=center;verticalAlign=top;childLayout=stackLayout;horizontal=1;startSize=26;horizontalStack=0;resizeParent=1;resizeParentMax=0;resizeLast=0;collapsible=1;marginBottom=0;whiteSpace=wrap;html=1;" vertex="1" parent="1">
          <mxGeometry x="320" y="40" width="160" height="180" as="geometry" />
        </mxCell>
        <mxCell id="nlqc5ojidWCJSM2kQyEX-2" value="-adminName : String&lt;br&gt;-adminId : String&lt;br&gt;-admiPassword : String" style="text;strokeColor=none;fillColor=none;align=left;verticalAlign=top;spacingLeft=4;spacingRight=4;overflow=hidden;rotatable=0;points=[[0,0.5],[1,0.5]];portConstraint=eastwest;whiteSpace=wrap;html=1;" vertex="1" parent="nlqc5ojidWCJSM2kQyEX-1">
          <mxGeometry y="26" width="160" height="54" as="geometry" />
        </mxCell>
        <mxCell id="nlqc5ojidWCJSM2kQyEX-3" value="" style="line;strokeWidth=1;fillColor=none;align=left;verticalAlign=middle;spacingTop=-1;spacingLeft=3;spacingRight=3;rotatable=0;labelPosition=right;points=[];portConstraint=eastwest;strokeColor=inherit;" vertex="1" parent="nlqc5ojidWCJSM2kQyEX-1">
          <mxGeometry y="80" width="160" height="8" as="geometry" />
        </mxCell>
        <mxCell id="nlqc5ojidWCJSM2kQyEX-4" value="+getAdminName()&lt;br&gt;+setAdminName()&lt;br&gt;+getAdminId()&lt;br&gt;+setAdminId()&lt;br&gt;+getAdminPassword()&lt;br&gt;+setAdminPassWord()" style="text;strokeColor=none;fillColor=none;align=left;verticalAlign=top;spacingLeft=4;spacingRight=4;overflow=hidden;rotatable=0;points=[[0,0.5],[1,0.5]];portConstraint=eastwest;whiteSpace=wrap;html=1;" vertex="1" parent="nlqc5ojidWCJSM2kQyEX-1">
          <mxGeometry y="88" width="160" height="92" as="geometry" />
        </mxCell>
        <mxCell id="nlqc5ojidWCJSM2kQyEX-5" value="Admin" style="swimlane;fontStyle=1;align=center;verticalAlign=top;childLayout=stackLayout;horizontal=1;startSize=26;horizontalStack=0;resizeParent=1;resizeParentMax=0;resizeLast=0;collapsible=1;marginBottom=0;whiteSpace=wrap;html=1;" vertex="1" parent="1">
          <mxGeometry x="590" y="280" width="160" height="180" as="geometry" />
        </mxCell>
        <mxCell id="nlqc5ojidWCJSM2kQyEX-6" value="-adminName : String&lt;br&gt;-adminId : String&lt;br&gt;-admiPassword : String" style="text;strokeColor=none;fillColor=none;align=left;verticalAlign=top;spacingLeft=4;spacingRight=4;overflow=hidden;rotatable=0;points=[[0,0.5],[1,0.5]];portConstraint=eastwest;whiteSpace=wrap;html=1;" vertex="1" parent="nlqc5ojidWCJSM2kQyEX-5">
          <mxGeometry y="26" width="160" height="54" as="geometry" />
        </mxCell>
        <mxCell id="nlqc5ojidWCJSM2kQyEX-7" value="" style="line;strokeWidth=1;fillColor=none;align=left;verticalAlign=middle;spacingTop=-1;spacingLeft=3;spacingRight=3;rotatable=0;labelPosition=right;points=[];portConstraint=eastwest;strokeColor=inherit;" vertex="1" parent="nlqc5ojidWCJSM2kQyEX-5">
          <mxGeometry y="80" width="160" height="8" as="geometry" />
        </mxCell>
        <mxCell id="nlqc5ojidWCJSM2kQyEX-8" value="+getAdminName()&lt;br&gt;+setAdminName()&lt;br&gt;+getAdminId()&lt;br&gt;+setAdminId()&lt;br&gt;+getAdminPassword()&lt;br&gt;+setAdminPassWord()" style="text;strokeColor=none;fillColor=none;align=left;verticalAlign=top;spacingLeft=4;spacingRight=4;overflow=hidden;rotatable=0;points=[[0,0.5],[1,0.5]];portConstraint=eastwest;whiteSpace=wrap;html=1;" vertex="1" parent="nlqc5ojidWCJSM2kQyEX-5">
          <mxGeometry y="88" width="160" height="92" as="geometry" />
        </mxCell>
        <mxCell id="nlqc5ojidWCJSM2kQyEX-9" value="Bus" style="swimlane;fontStyle=1;align=center;verticalAlign=top;childLayout=stackLayout;horizontal=1;startSize=26;horizontalStack=0;resizeParent=1;resizeParentMax=0;resizeLast=0;collapsible=1;marginBottom=0;whiteSpace=wrap;html=1;" vertex="1" parent="1">
          <mxGeometry x="50" y="280" width="160" height="220" as="geometry" />
        </mxCell>
        <mxCell id="nlqc5ojidWCJSM2kQyEX-10" value="+busName : String&lt;br&gt;-busId : String&lt;br&gt;+busType : String&lt;br&gt;+busNo : int&lt;br&gt;+busSeats : int&lt;br&gt;+busRoute : String" style="text;strokeColor=none;fillColor=none;align=left;verticalAlign=top;spacingLeft=4;spacingRight=4;overflow=hidden;rotatable=0;points=[[0,0.5],[1,0.5]];portConstraint=eastwest;whiteSpace=wrap;html=1;" vertex="1" parent="nlqc5ojidWCJSM2kQyEX-9">
          <mxGeometry y="26" width="160" height="94" as="geometry" />
        </mxCell>
        <mxCell id="nlqc5ojidWCJSM2kQyEX-11" value="" style="line;strokeWidth=1;fillColor=none;align=left;verticalAlign=middle;spacingTop=-1;spacingLeft=3;spacingRight=3;rotatable=0;labelPosition=right;points=[];portConstraint=eastwest;strokeColor=inherit;" vertex="1" parent="nlqc5ojidWCJSM2kQyEX-9">
          <mxGeometry y="120" width="160" height="8" as="geometry" />
        </mxCell>
        <mxCell id="nlqc5ojidWCJSM2kQyEX-12" value="+" style="text;strokeColor=none;fillColor=none;align=left;verticalAlign=top;spacingLeft=4;spacingRight=4;overflow=hidden;rotatable=0;points=[[0,0.5],[1,0.5]];portConstraint=eastwest;whiteSpace=wrap;html=1;" vertex="1" parent="nlqc5ojidWCJSM2kQyEX-9">
          <mxGeometry y="128" width="160" height="92" as="geometry" />
        </mxCell>
      </root>
    </mxGraphModel>
  </diagram>
</mxfile>
